<svg xmlns="http://www.w3.org/2000/svg" viewBox="-49 141 512 512">
<path d="M449.966 480.95c-7.197 0-13.034 5.835-13.034 13.034v49.804c0 28.747-23.388 52.135-52.135 52.135H29.203c-28.747 0-52.135-23.388-52.135-52.135v-49.804c0-7.2-5.835-13.034-13.034-13.034S-49 486.785-49 493.983v49.804C-49 586.908-13.918 622 29.203 622h355.594c43.12 0 78.203-35.082 78.203-78.203v-49.804c0-7.198-5.835-13.033-13.034-13.033z" />
<path d="M43.167 558.372h327.665c7.2 0 13.034-5.835 13.034-13.034s-5.835-13.034-13.034-13.034H43.167c-7.197 0-13.034 5.835-13.034 13.034s5.836 13.034 13.034 13.034z" fill="#ff0201" />
<path className="c-arow-animation" d="M93.484 297.272l100.482-89.764v252.6c0 7.2 5.837 13.034 13.034 13.034s13.034-5.835 13.034-13.034v-252.6l100.482 89.764c2.486 2.22 5.588 3.315 8.678 3.315 3.583 0 7.15-1.47 9.726-4.35a13.04 13.04 0 0 0-1.037-18.404L228.71 180.3c-12.376-11.055-31.04-11.057-43.417 0L76.117 277.83c-5.37 4.795-5.833 13.035-1.037 18.404s13.033 5.835 18.404 1.038z" />
</svg>