<svg enableBackground="new 0 0 512.001 512.001" version="1.1" viewBox="0 0 512 512" xmlSpace="preserve" xmlns="http://www.w3.org/2000/svg">
    <path d="m424 348h-80c-18.748 0-34 15.252-34 34s15.252 34 34 34h80c18.748 0 34-15.252 34-34s-15.252-34-34-34zm0 48h-80c-7.72 0-14-6.28-14-14s6.28-14 14-14h80c7.72 0 14 6.28 14 14s-6.28 14-14 14z" />
    <path d="m462 284h-67.996v-85.25c0-5.523-4.477-10-10-10s-10 4.477-10 10v85.25h-202c-5.523 0-10 4.477-10 10s4.477 10 10 10h290c16.544 0 30.004 13.46 30.004 30.004v95.992c0 16.544-13.46 30.004-30.004 30.004h-411.99c-16.544 0-30.004-13.46-30.004-30.004v-95.992c0-16.544 13.46-30.004 30.004-30.004h37.996c5.523 0 10-4.477 10-10s-4.477-10-10-10h-37.996c-27.572 0-50.004 22.432-50.004 50.004v95.992c0 27.572 22.432 50.004 50.004 50.004h3.996v22c0 5.523 4.477 10 10 10h80c5.523 0 10-4.477 10-10v-22h204v22c0 5.523 4.477 10 10 10h80c5.523 0 10-4.477 10-10v-22h3.996c27.572 0 50.004-22.432 50.004-50.004v-95.992c0-27.572-22.432-50.004-50.004-50.004zm-328 208h-60v-12h60v12zm304 0h-60v-12h60v12z" />
    <path d="m138.32 286.93c-1.86-1.86-4.44-2.93-7.07-2.93s-5.21 1.07-7.07 2.93-2.93 4.44-2.93 7.07 1.07 5.21 2.93 7.07 4.44 2.93 7.07 2.93 5.21-1.07 7.07-2.93 2.93-4.44 2.93-7.07-1.07-5.21-2.93-7.07z" />
    <path d="m172 348c-18.748 0-34 15.252-34 34s15.252 34 34 34 34-15.252 34-34-15.252-34-34-34zm0 48c-7.72 0-14-6.28-14-14s6.28-14 14-14 14 6.28 14 14-6.28 14-14 14z" />
    <path d="m88.001 348c-18.748 0-34 15.252-34 34s15.252 34 34 34 34-15.252 34-34-15.252-34-34-34zm0 48c-7.72 0-14-6.28-14-14s6.28-14 14-14 14 6.28 14 14-6.28 14-14 14z" />
    <path d="m256 348c-18.748 0-34 15.252-34 34s15.252 34 34 34 34-15.252 34-34-15.252-34-34-34zm0 48c-7.72 0-14-6.28-14-14s6.28-14 14-14 14 6.28 14 14-6.28 14-14 14z" />
    <path d="m413.7 63.767c-7.933-7.933-18.48-12.302-29.699-12.302s-21.766 4.369-29.699 12.301c-16.375 16.376-16.375 43.021 0 59.397 7.933 7.933 18.48 12.302 29.699 12.302s21.766-4.369 29.699-12.302c16.375-16.376 16.375-43.021 0-59.396zm-14.143 45.254c-4.155 4.155-9.68 6.444-15.556 6.444s-11.401-2.289-15.556-6.444c-8.578-8.578-8.578-22.535 0-31.113 4.155-4.155 9.68-6.443 15.556-6.443s11.401 2.288 15.556 6.444c8.578 8.578 8.578 22.534 0 31.112z" />
    <path fill="#ed2024" d="m441.98 35.482c-3.906-3.905-10.237-3.905-14.142 0s-3.906 10.237 0 14.142c24.174 24.174 24.174 63.508 0 87.681-3.905 3.905-3.905 10.237 0 14.143 1.953 1.953 4.512 2.929 7.071 2.929s5.119-0.976 7.071-2.929c31.971-31.972 31.971-83.994 0-115.97z" />
    <path fill="#ed2024" d="m340.16 49.623c3.905-3.905 3.905-10.237 0-14.142s-10.237-3.905-14.142 0c-31.971 31.973-31.971 83.995 0 115.97 1.953 1.953 4.512 2.929 7.071 2.929s5.119-0.976 7.071-2.929c3.905-3.905 3.905-10.237 0-14.143-24.174-24.173-24.174-63.507 0-87.682z" />
    <path fill="#ed2024" d="m474.54 2.93c-3.905-3.906-10.237-3.904-14.142 0-3.905 3.905-3.906 10.237 0 14.143 42.122 42.122 42.122 110.66 0 152.78-3.905 3.905-3.905 10.237 0 14.142 1.953 1.953 4.512 2.929 7.071 2.929s5.119-0.977 7.071-2.929c49.92-49.921 49.92-131.15 0-181.07z" />
    <path fill="#ed2024" d="m307.61 169.86c-42.123-42.123-42.123-110.66 0-152.78 3.905-3.905 3.905-10.237 0-14.143s-10.237-3.905-14.142 0c-49.92 49.921-49.92 131.15 0 181.07 1.953 1.954 4.512 2.93 7.071 2.93s5.119-0.977 7.071-2.929c3.905-3.905 3.906-10.237 0-14.142z" />
    <path d="m391.07 156.68c-1.86-1.86-4.44-2.93-7.07-2.93s-5.21 1.07-7.07 2.93-2.93 4.44-2.93 7.07 1.07 5.21 2.93 7.07 4.44 2.93 7.07 2.93 5.21-1.07 7.07-2.93 2.93-4.44 2.93-7.07-1.07-5.21-2.93-7.07z" />
</svg>